<svg xmlns="http://www.w3.org/2000/svg" xmlns:xlink="http://www.w3.org/1999/xlink" width="500" zoomAndPan="magnify" viewBox="0 0 375 374.999991" height="500" preserveAspectRatio="xMidYMid meet" version="1.0">
  <defs>
    <g/>
    <clipPath id="bc02c1a391">
      <path d="M 98.519531 144.292969 L 284.519531 144.292969 L 284.519531 254.542969 L 98.519531 254.542969 Z M 98.519531 144.292969 " clip-rule="nonzero"/>
    </clipPath>
    <clipPath id="a97c1abdad">
      <path d="M 190.671875 128.164062 L 218.421875 128.164062 L 218.421875 155.914062 L 190.671875 155.914062 Z M 190.671875 128.164062 " clip-rule="nonzero"/>
    </clipPath>
  </defs>
  <!-- Removed background rectangles -->
  <g clip-path="url(#bc02c1a391)">
    <path fill="#f4ca27" d="M 98.519531 254.808594 C 98.519531 254.808594 101.894531 211.671875 188.707031 194.101562 C 275.519531 176.527344 283.480469 144.394531 283.480469 144.394531 C 283.480469 144.394531 295.964844 179.683594 231.882812 205.90625 C 167.804688 232.128906 123.9375 210.925781 98.519531 254.808594 " fill-opacity="1" fill-rule="nonzero"/>
  </g>
  <g fill="#1b1a1a" fill-opacity="1">
    <g transform="translate(115.451371, 233.917602)">
      <g>
        <path d="M 75.59375 -23.5 L 76.09375 -23.265625 L 70.15625 0 L 69.40625 2.71875 L 65.203125 0 L 1.859375 0 L 1.859375 -0.625 C 4.410156 -1.53125 6.613281 -2.679688 8.46875 -4.078125 C 10.332031 -5.484375 11.265625 -7.300781 11.265625 -9.53125 L 11.265625 -79.546875 C 11.265625 -81.773438 10.332031 -83.320312 8.46875 -84.1875 C 6.613281 -85.050781 4.410156 -85.648438 1.859375 -85.984375 L 1.859375 -86.609375 L 67.671875 -86.609375 L 71.640625 -67.546875 L 71.140625 -67.296875 C 68.492188 -71.015625 66.015625 -74.171875 63.703125 -76.765625 C 61.398438 -79.367188 58.785156 -81.328125 55.859375 -82.640625 C 52.929688 -83.960938 49.28125 -84.625 44.90625 -84.625 L 22.640625 -84.625 L 22.640625 -44.296875 L 41.9375 -44.296875 C 46.144531 -44.296875 49.398438 -44.6875 51.703125 -45.46875 C 54.015625 -46.25 55.8125 -47.523438 57.09375 -49.296875 C 58.375 -51.078125 59.507812 -53.367188 60.5 -56.171875 L 60.5 -30.4375 C 59.507812 -33.320312 58.375 -35.628906 57.09375 -37.359375 C 55.8125 -39.097656 54.015625 -40.359375 51.703125 -41.140625 C 49.398438 -41.921875 46.144531 -42.3125 41.9375 -42.3125 L 22.640625 -42.3125 L 22.640625 -1.984375 L 47.875 -1.984375 C 52.25 -1.984375 55.898438 -2.828125 58.828125 -4.515625 C 61.753906 -6.203125 64.492188 -8.65625 67.046875 -11.875 C 69.609375 -15.09375 72.457031 -18.96875 75.59375 -23.5 Z M 75.59375 -23.5 "/></g></g></g><g fill="#1b1a1a" fill-opacity="1"><g transform="translate(188.678899, 234.841626)"><g><path d="M 68.09375 -11.046875 C 65.976562 -7.660156 62.742188 -4.738281 58.390625 -2.28125 C 54.046875 0.164062 48.71875 1.390625 42.40625 1.390625 C 37.226562 1.390625 32.363281 0.507812 27.8125 -1.25 C 23.269531 -3.007812 19.238281 -5.5 15.71875 -8.71875 C 12.207031 -11.9375 9.457031 -15.765625 7.46875 -20.203125 C 5.476562 -24.648438 4.484375 -29.566406 4.484375 -34.953125 C 4.484375 -40.660156 5.578125 -45.734375 7.765625 -50.171875 C 9.953125 -54.617188 12.9375 -58.398438 16.71875 -61.515625 C 20.507812 -64.640625 24.789062 -67.015625 29.5625 -68.640625 C 34.34375 -70.273438 39.289062 -71.09375 44.40625 -71.09375 C 50.707031 -71.09375 55.914062 -70.046875 60.03125 -67.953125 C 64.144531 -65.859375 67.332031 -63.421875 69.59375 -60.640625 L 57.453125 -43.703125 L 57.15625 -43.8125 C 58.539062 -47.0625 59.117188 -50.175781 58.890625 -53.15625 C 58.660156 -56.144531 57.765625 -58.832031 56.203125 -61.21875 C 54.640625 -63.613281 52.445312 -65.507812 49.625 -66.90625 C 46.8125 -68.300781 43.507812 -69 39.71875 -69 C 35.144531 -69 30.960938 -67.898438 27.171875 -65.703125 C 23.390625 -63.515625 20.351562 -60.3125 18.0625 -56.09375 C 15.78125 -51.882812 14.640625 -46.660156 14.640625 -40.421875 C 14.640625 -35.242188 15.484375 -30.378906 17.171875 -25.828125 C 18.867188 -21.285156 21.191406 -17.320312 24.140625 -13.9375 C 27.097656 -10.550781 30.515625 -7.894531 34.390625 -5.96875 C 38.273438 -4.050781 42.375 -3.09375 46.6875 -3.09375 C 49.21875 -3.09375 51.804688 -3.421875 54.453125 -4.078125 C 57.109375 -4.742188 59.582031 -5.722656 61.875 -7.015625 C 64.164062 -8.304688 66.007812 -9.816406 67.40625 -11.546875 Z M 68.09375 -11.046875 "/></g></g></g><g clip-path="url(#a97c1abdad)"><path fill="#f4ca27" d="M 218.300781 141.980469 C 207.9375 143.890625 206.394531 145.433594 204.484375 155.796875 C 202.578125 145.433594 201.03125 143.890625 190.671875 141.980469 C 201.03125 140.074219 202.578125 138.527344 204.484375 128.164062 C 206.394531 138.527344 207.9375 140.074219 218.300781 141.980469 Z M 218.300781 141.980469 " fill-opacity="1" fill-rule="nonzero"/></g></svg>
